/* XPM */
static char *arch_16[] = {
/* columns rows colors chars-per-pixel */
"16 16 53 1 ",
"  c None",
". c #FFFFFF",
"X c #FFFFFF",
"o c #FFFFFF",
"O c #FFFFFF",
"+ c #FFFFFF",
"@ c #FFFFFF",
"# c #FFFFFF",
"$ c #FFFFFF",
"% c #FFFFFF",
"& c #FFFFFF",
"* c #FFFFFF",
"= c #FFFFFF",
"- c #FFFFFF",
"; c #FFFFFF",
": c #FFFFFF",
"> c #FFFFFF",
", c #FFFFFF",
"< c #FFFFFF",
"1 c #FFFFFF",
"2 c #FFFFFF",
"3 c #FFFFFF",
"4 c #FFFFFF",
"5 c #FFFFFF",
"6 c #FFFFFF",
"7 c #FFFFFF",
"8 c #FFFFFF",
"9 c #FFFFFF",
"0 c #FFFFFF",
"q c #FFFFFF",
"w c #FFFFFF",
"e c #FFFFFF",
"r c #FFFFFF",
"t c #FFFFFF",
"y c #FFFFFF",
"u c #FFFFFF",
"i c #FFFFFF",
"p c #FFFFFF",
"a c #FFFFFF",
"s c #FFFFFF",
"d c #FFFFFF",
"f c #FFFFFF",
"g c #FFFFFF",
"h c #FFFFFF",
"j c #FFFFFF",
"k c #FFFFFF",
"l c #FFFFFF",
"z c #FFFFFF",
"x c #FFFFFF",
"c c #FFFFFF",
"v c #FFFFFF",
"b c #FFFFFF",
"n c #FFFFFF",
/* pixels */
"                ",
"       ;7       ",
"       79       ",
"      e%6l      ",
"      utep      ",
"      jauy      ",
"     cxxjhx     ",
"     bvhhhh     ",
"    nsooo;o2    ",
"    ;o;1oo;o3   ",
"   ;;o;  o;;;   ",
"  #oo;    ooo3  ",
"  ;;;;    ;;;9  ",
" ;;o;1    1;;;% ",
" ;;          #; ",
"9              w"
};
